<svg xmlns="http://www.w3.org/2000/svg" viewBox="0 0 700 700"><path d="M0,350V700H700V0H0ZM572.5,178.1c.4,7.5,1,14.2,1.4,14.7.4.7,7.1-1,19-4.9,10.1-3.2,18.6-5.7,18.8-5.5s-4.7,7.5-11.1,16.2-11.3,16.1-10.8,16.5,8,3.7,17,7.3,17.1,7,18,7.5c1.9,1.1.8,1.4-22,6.8-8.7,2-15.8,3.9-15.8,4.2s4.3,8.5,9.4,18.1,9.2,17.6,9.1,17.8-5.7-2.4-12.4-5.7-12.2-6.1-12.3-6.1-.2,2.1-.1,4.7c.7,12.8,3.3,84.1,3.8,101.3.7,24.3-.9,66.6-3,78.5-3.2,18.1-9.8,34.2-19,45.7-9.4,12-26.9,23.2-42.5,27.5-8.9,2.4-28.1,2.4-37,0-13.4-3.6-26.9-11.3-38.4-21.8-3.7-3.4-7.1-5.8-7.5-5.3s-2.4,3-4.4,5.6a25.26,25.26,0,0,1-19.6,9.8c-6.7-.1-11.2-1.6-17.3-5.8l-4.7-3.2-8.5,6.5c-64.3,48.4-154.2,51.4-221.5,7.2-18.8-12.4-35.9-28.2-48.7-45.2-17.6-23.2-29.7-50.1-36-79.8-3.5-16.7-4.4-45.7-2-63.1C84.9,253.1,135.4,192.2,206,169a191.87,191.87,0,0,1,146.9,10.6c21,10.4,36.3,21.6,53.2,39,31.7,32.7,50,73.3,54,119.9a211,211,0,0,1,.5,23.5c-.7,11.5-3.9,32.5-6.1,39.6l-1.3,4.5,6.1,4.5c10.3,7.4,13.4,13.7,12.5,25.3-.3,4.5-1.3,7.3-4.1,12.1l-3.8,6.3,2.7,3.9c4.4,6.2,14.8,15.3,21.1,18.4,4.9,2.4,7.1,2.9,13.8,2.9,6.9,0,8.8-.4,13.8-3,11.2-5.6,17.8-15.4,21.3-31.5,1.8-8.2,3.5-51.6,2.9-71.5-1.6-48.6-3.9-103.2-4.4-104.1s-4.9,2.2-11.9,7.8c-6.3,4.9-11.6,8.8-11.8,8.5s2-8.9,5-19.3,5.4-18.9,5.3-19.1-9.5-.6-20.7-1l-20.5-.8L497,234.6c9.1-6,16.8-11.1,17.2-11.5s-5.9-6.7-14.2-14.1c-10.4-9.4-14.3-13.6-13.1-13.8,1-.2,9.8.6,19.6,1.7s18.1,1.8,18.3,1.6c.4-.4-2.5-24-4.5-36.7-.5-3.6-.1-3.3,14.1,11.1L549,187.7l10.7-17.4,10.8-17.4.7,5.8C571.5,161.9,572.1,170.6,572.5,178.1Z" transform="translate(0 0)" style="fill:#ffb41d"/></svg>